<svg id="Layer_1" data-name="Layer 1" xmlns="http://www.w3.org/2000/svg" width="75.6mm" height="81.6mm" viewBox="0 0 214.4 231.4"><title>foikonok</title><path d="M111.8,109.9c-1.5-3.6,0-5.5-4.2-11.3C98,84.9,84.5,88.1,71.2,82.9,64,80.1,57.9,70.2,53.9,57.1a37.3,37.3,0,0,0,8,8.3,94.4,94.4,0,0,1-10-22.8,42.6,42.6,0,0,0,8.5,8.9,107.4,107.4,0,0,1-9.8-22.8c17,23.6,44.1,19,61.8,42.2,7.9,9.9,9.9,24.1,4.5,31.8Z" style="fill:#fff"/><ellipse cx="128.8" cy="45.3" rx="17.1" ry="3.3" transform="translate(-6.8 29.2) rotate(-12.6)" style="fill:#fff"/><path d="M107.2,202.7l-.3-.4-.2.4Z" style="fill:#bbe3f8"/><path d="M165.3,99.6c3.2-10.1.1-17,.1-17-5.1,3.2-7.3,10.2-8.2,14.4a25.7,25.7,0,0,1-3.8-2.4s-6.9,14.2-12,13.7c-1.8-.2,1.3-17.9.1-26.5a12.7,12.7,0,0,0,5.4-12.2A23.2,23.2,0,0,0,142.4,58l3.7-1.1c-4.7-7.2-10.5-6.2-10.5-6.2-24.6,2-14.2,31.7-14.2,31.7l5.9-1.3c-.4,1.3-1.9,5.5-1.9,5.5l-.9,1.8a74.1,74.1,0,0,1-11.6,17.7c-11.9,13.5-39.8,26.8-70.7,34.3,0,0,14.9,12.1,22.7,30.6s28.5,15.1,42,31.3c2.3-4,23.5-41.5,31.8-80.3l1.8.4c10.9,3.3,31.7-23,31.7-23A16.2,16.2,0,0,1,165.3,99.6Z" style="fill:#bbe3f8"/></svg>