<svg xmlns="http://www.w3.org/2000/svg" width="60" height="80" viewBox="0 0 60 80"><title>rhyt</title><g id="Layer_2" data-name="Layer 2"><path d="M20,2.7c8.7.3,13.4,4.6,13.3,13.9C24.7,16.1,19.5,12.3,20,2.7Z" style="fill:#1e803f;fill-rule:evenodd"/><path d="M40.7,12.2A44.1,44.1,0,0,0,34.6,17a79.6,79.6,0,0,0-6.9,7.7c1.5-2.7,3.1-5.8,4.7-9.2s2.2-5,3-7.1a8,8,0,0,0,2.1,2.5A6.8,6.8,0,0,0,40.7,12.2Z" style="fill:#671110;fill-rule:evenodd"/><path d="M21.8,16.2c2.8,0,8,2.3,9.8,2.3,7.5,0,13.2-3.7,17.4,2.6,8,11.8-3.2,35.2-13.3,36.4-1.7.2-3-1.5-5.1-1.5s-3.6,1.7-5.7,1.5C10.8,56-2,16.4,21.8,16.2Z" style="fill:#b21f29;fill-rule:evenodd"/></g></svg>
