<svg id="Layer_1" data-name="Layer 1" xmlns="http://www.w3.org/2000/svg" width="75.6mm" height="81.6mm" viewBox="0 0 214.4 231.4"><title>foikonok</title><g id="ezüst_csengő" data-name="ezüst csengő"><g id="csengő"><circle cx="104.3" cy="170.5" r="12.7" style="fill:#838383"/><path d="M151.1,168.7c-9.1-22.1-3.2-39.7-3.3-53.7-.1-15.6-3-26.7-11.1-37.2-4.6-5.8-9.6-9.1-15.3-10.4a10.3,10.3,0,0,0,5.7-8,10.2,10.2,0,1,0-16,7.1c-5.3.4-10.4,2.6-15.5,6.8-10.3,8.5-15.5,18.6-19,33.8s-1.2,32.1-14.9,51.7a6.3,6.3,0,0,0,4.9,9.8c13.3.7,22.6.8,39,2s25.4,4.3,38.6,6.6A6.3,6.3,0,0,0,151.1,168.7Z" style="fill:#bbb"/></g><path d="M76.4,103.6a14,14,0,0,1,2.8-7.4c7.4-9.3,24-3.5,35.1-13.4a22.2,22.2,0,0,0,5.2-6.8l-4.3-5.4a23.3,23.3,0,0,1-5.1,6.8C99,87.3,82.3,81.5,75,90.7a14.4,14.4,0,0,0-2.9,7.5l2.7-1Z" style="fill:#A71E22;stroke:#edde2a;stroke-miterlimit:10"/><path d="M148.1,112.9a13.8,13.8,0,0,0-.9-8c-4.8-10.9-22.3-9.4-30.6-21.8a23.1,23.1,0,0,1-3.2-7.9l5.5-4.2a21.7,21.7,0,0,0,3.2,7.9c8.3,12.4,25.8,11,30.6,21.8a14.1,14.1,0,0,1,.9,8l-2.3-1.7Z" style="fill:#A71E22;stroke:#edde2a;stroke-miterlimit:10"/><path d="M115.9,70a3.5,3.5,0,0,1-1,1.9c-2.3,2.3-9.2,8.7-15.2,7.9L88.5,78.4a3.3,3.3,0,0,1-2.8-3.7L88.5,53a3.2,3.2,0,0,1,3.6-2.8l10.8,1.4c6,.8,11.3,8.1,13.1,10.9a2.9,2.9,0,0,1,.5,2.2Z" style="fill:#A71E22;stroke:#edde2a;stroke-miterlimit:10"/><path d="M118.5,70.3a3,3,0,0,0,.4,2.1c1.6,2.8,6.7,10.7,12.7,11.5l11.2,1.4a3.3,3.3,0,0,0,3.7-2.8l2.8-21.6a3.4,3.4,0,0,0-2.9-3.7l-10.7-1.4c-6-.8-13,5-15.5,7.2a3.5,3.5,0,0,0-1,2.1Z" style="fill:#A71E22;stroke:#edde2a;stroke-miterlimit:10"/><rect x="108.6" y="59.3" width="17.7" height="17.05" rx="6.2" ry="6.2" transform="translate(9.6 -14.4) rotate(7.3)" style="fill:#A71E22;stroke:#edde2a;stroke-miterlimit:10"/></g></svg>
