<svg id="Layer_1" data-name="Layer 1" xmlns="http://www.w3.org/2000/svg" width="45.4mm" height="51.2mm" viewBox="0 0 128.8 145"><title>ding</title><g id="csengő"><circle cx="79.5" cy="106.5" r="8.2" style="fill:#f1eb4e;stroke:#e4ba22;stroke-miterlimit:10;stroke-width:2px"/><path d="M50.3,113.1c1.9-15.2-4.6-25-6.9-33.7s-2.6-17,.7-24.8a17,17,0,0,1,7.7-9,6.5,6.5,0,0,1-4.8-4,6.5,6.5,0,0,1,12.1-4.7A6.2,6.2,0,0,1,58,43.3a18.2,18.2,0,0,1,10.7,1.6c7.8,3.6,12.7,9,17.4,17.8s6,19.6,17.8,29.5a4,4,0,0,1-1.4,6.8c-8.1,2.7-13.9,4.3-23.8,7.7s-15,6.9-22.8,10.5A4,4,0,0,1,50.3,113.1Z" style="fill:#f1eb4e;stroke:#dfcd25;stroke-miterlimit:10;stroke-width:2px"/><path d="M58.9,24.5,51,24.2l.9,2.1a2.6,2.6,0,0,1-3.7,3.2l-.6-.3.7,4.8c.6,3.7-1.7,7.3-5.6,8.8l-5.1,2.1,3,1.1c5.2,1.9,8.4,6.5,7.9,11.4l-.3,2.8,7.4-4.9a1.7,1.7,0,0,1,1.9,0l7.2,4.3-.9-6.5a6,6,0,0,1,4.1-6.4l6.9-2.8-5.7-2h0a1.2,1.2,0,0,1-.5-1.8l1-1.5a3.4,3.4,0,0,1,2-1.3L81,35.5l-3.7-3.8c-1.5-1.6-.9-4.5,1.7-7.1L85.1,18l-6.8,2.4c-4.4,1.6-8.2.9-9.2-1.7l-1.6-3.9-5.3,7.6A5.6,5.6,0,0,1,58.9,24.5Z" style="fill:#286733;stroke:#6aa35a;stroke-miterlimit:10"/><path d="M30.5,49.7,33,55.2l1.1-1.3a2,2,0,0,1,3.5,1.4v.5l3-2.1a6.4,6.4,0,0,1,8,.9l3.1,2.8-.3-2.5c-.5-4.2,1.6-8,5.1-9.3l2-.7-5.8-3.4a1.5,1.5,0,0,1-.7-1.3l.5-6.4-4.1,2.9a4.6,4.6,0,0,1-5.7-.6l-4.3-3.8.6,4.5h0a1,1,0,0,1-1.1.9l-1.3-.2a2.4,2.4,0,0,1-1.6-.9l-4.5-5.8-1.3,3.8c-.5,1.6-2.7,2.1-5.4,1.3l-6.5-1.9,3.9,3.8c2.6,2.5,3.4,5.3,2,6.9l-2.2,2.4,7,1A4.3,4.3,0,0,1,30.5,49.7Z" style="fill:#286733;stroke:#6aa35a;stroke-miterlimit:10"/></g></svg>