<svg id="Layer_1" data-name="Layer 1" xmlns="http://www.w3.org/2000/svg" xmlns:xlink="http://www.w3.org/1999/xlink" width="325" height="206" viewBox="0 0 325 206"><defs><linearGradient id="linear-gradient" x1="-362.29" y1="158.2" x2="-362.29" y2="55.59" gradientTransform="matrix(-1, 0, 0, 1, -155.07, 0)" gradientUnits="userSpaceOnUse"><stop offset="0" stop-color="#fff"/><stop offset="1" stop-color="#7ff2ff"/></linearGradient><linearGradient id="linear-gradient-2" x1="-392.39" y1="175.73" x2="-392.39" y2="44.65" xlink:href="#linear-gradient"/><linearGradient id="linear-gradient-3" x1="-429.33" y1="180.92" x2="-429.33" y2="82.75" xlink:href="#linear-gradient"/><linearGradient id="linear-gradient-4" x1="-215.92" y1="137.51" x2="-215.92" y2="53.71" xlink:href="#linear-gradient"/><linearGradient id="linear-gradient-5" x1="-257.54" y1="148.37" x2="-257.54" y2="37.78" xlink:href="#linear-gradient"/><linearGradient id="linear-gradient-6" x1="-275.14" y1="153.64" x2="-275.14" y2="66.75" xlink:href="#linear-gradient"/><linearGradient id="linear-gradient-7" x1="-319.19" y1="172.63" x2="-319.19" y2="27.65" xlink:href="#linear-gradient"/></defs><title>decoration</title><g id="fenyőerdő"><path id="fenxő" d="M169,153c-.2-1.7,3.6-2.4,10.2-8.5,3.1-3,6.1-6.1,8.8-9.2a51,51,0,0,0-19.4,9.5c10.2-8.3,20.1-20.3,27.2-32.1a36.6,36.6,0,0,0-16.4,8c7.7-6.7,15-16.5,20.2-26a25.8,25.8,0,0,0-12.4,6.3c6.1-5.7,11.9-14.4,15.5-22.5a17,17,0,0,0-9.1,5.1c6.7-7.3,12.9-20.8,12.9-28,0,7.2,6.2,20.7,12.9,28a16.4,16.4,0,0,0-9-5.1c3.6,8.1,9.4,16.8,15.5,22.5a25.8,25.8,0,0,0-12.4-6.3c5.1,9.5,12.5,19.3,20.1,26a36.7,36.7,0,0,0-16.3-8c7.1,11.8,16.9,23.8,27.2,32.1a54.3,54.3,0,0,0-20.7-9.8,132.7,132.7,0,0,0,22,20l-1.7-1.2,1.6,1.2a274.6,274.6,0,0,1-38.7,3.2C191.2,158.3,169.5,157.2,169,153Z" style="fill:url(#linear-gradient)"/><path id="fenxő-2" data-name="fenxő" d="M188.5,169.1c-.3-2.2,4.6-3.1,13-10.9,4-3.8,7.8-7.7,11.3-11.7-9.3,2.5-17.9,6.5-24.8,12.1,13.1-10.6,25.7-25.9,34.7-41a48.7,48.7,0,0,0-20.9,10.2c9.8-8.6,19.2-21.1,25.7-33.2a34,34,0,0,0-15.8,8c7.8-7.3,15.2-18.4,19.8-28.6A21.4,21.4,0,0,0,220,80.4c8.5-9.3,16.4-26.5,16.4-35.7,0,9.2,8,26.4,16.5,35.7A21.3,21.3,0,0,0,241.3,74c4.7,10.2,12.1,21.3,19.9,28.6a33.8,33.8,0,0,0-15.9-8c6.6,12.1,16,24.6,25.8,33.2a48.7,48.7,0,0,0-20.9-10.2c9,15.1,21.6,30.4,34.7,41-7.3-5.9-16.5-10.1-26.4-12.6a161,161,0,0,0,28.1,25.6l-2.1-1.4,2,1.5a342.9,342.9,0,0,1-49.4,4C216.8,175.9,189.1,174.4,188.5,169.1Z" style="fill:url(#linear-gradient-2)"/><path id="fenxő-3" data-name="fenxő" d="M237.7,175.9c-.2-1.6,3.4-2.3,9.7-8.1a116.3,116.3,0,0,0,8.5-8.8,50.5,50.5,0,0,0-18.6,9.1c9.8-7.9,19.2-19.4,26-30.7a35.6,35.6,0,0,0-15.6,7.6c7.3-6.4,14.3-15.8,19.2-24.9a24.8,24.8,0,0,0-11.8,6.1,71,71,0,0,0,14.8-21.5,16.5,16.5,0,0,0-8.6,4.8c6.4-6.9,12.3-19.8,12.3-26.7,0,6.9,5.9,19.8,12.3,26.7a16.5,16.5,0,0,0-8.6-4.8,71,71,0,0,0,14.8,21.5,24.8,24.8,0,0,0-11.8-6.1c4.9,9.1,11.9,18.5,19.2,24.9a35.6,35.6,0,0,0-15.6-7.6c6.8,11.3,16.2,22.8,26,30.7a51.2,51.2,0,0,0-19.8-9.4,122.2,122.2,0,0,0,21.1,19.2l-1.6-1.2,1.5,1.2a256,256,0,0,1-37,3C258.9,181.1,238.2,179.9,237.7,175.9Z" style="fill:url(#linear-gradient-3)"/><path id="fenxő-4" data-name="fenxő" d="M29.6,133.3c-.1-1.5,3-2,8.3-7a102.5,102.5,0,0,0,7.3-7.5,42.3,42.3,0,0,0-15.9,7.8c8.4-6.8,16.4-16.6,22.2-26.3a31.9,31.9,0,0,0-13.3,6.5c6.2-5.4,12.2-13.4,16.4-21.2a21.7,21.7,0,0,0-10.1,5.2A61.6,61.6,0,0,0,57.2,72.4a13.8,13.8,0,0,0-7.4,4.2c5.4-6,10.5-17,10.5-22.9,0,5.9,5.1,16.9,10.5,22.9a13.8,13.8,0,0,0-7.4-4.2A61.6,61.6,0,0,0,76.1,90.8,22.2,22.2,0,0,0,66,85.6c4.2,7.8,10.2,15.8,16.4,21.2a31.9,31.9,0,0,0-13.3-6.5c5.8,9.7,13.8,19.5,22.2,26.3a44.2,44.2,0,0,0-16.9-8.1,101.6,101.6,0,0,0,18,16.4l-1.4-1,1.3,1a208.4,208.4,0,0,1-31.6,2.6C47.7,137.6,30,136.7,29.6,133.3Z" style="fill:url(#linear-gradient-4)"/><path id="fenxő-5" data-name="fenxő" d="M61.3,142.8c-.2-1.9,3.9-2.6,10.9-9.2,3.4-3.2,6.7-6.6,9.6-9.9A54.6,54.6,0,0,0,60.9,134c11-9,21.6-21.9,29.3-34.7a40.7,40.7,0,0,0-17.7,8.6c8.3-7.2,16.2-17.8,21.7-28a28.2,28.2,0,0,0-13.3,6.8A81.6,81.6,0,0,0,97.6,62.5a19.1,19.1,0,0,0-9.8,5.4c7.2-7.8,13.9-22.3,13.9-30.1,0,7.8,6.7,22.3,13.9,30.1a18.8,18.8,0,0,0-9.7-5.4c3.9,8.7,10.1,18,16.7,24.2a28.5,28.5,0,0,0-13.4-6.8c5.5,10.2,13.5,20.8,21.7,28a40.4,40.4,0,0,0-17.6-8.6c7.6,12.8,18.3,25.7,29.3,34.7a56.4,56.4,0,0,0-22.3-10.7,137.7,137.7,0,0,0,23.8,21.6l-1.9-1.2,1.8,1.2a295.8,295.8,0,0,1-41.7,3.5C85.2,148.5,61.8,147.3,61.3,142.8Z" style="fill:url(#linear-gradient-5)"/><path id="fenxő-6" data-name="fenxő" d="M87.7,149.2c-.2-1.4,3.1-2,8.6-7.2a91.5,91.5,0,0,0,7.5-7.8,45.8,45.8,0,0,0-16.4,8.1c8.6-7,17-17.2,23-27.2a32.2,32.2,0,0,0-13.9,6.7,79.7,79.7,0,0,0,17.1-22,22.5,22.5,0,0,0-10.5,5.4,63.8,63.8,0,0,0,13.1-19,14,14,0,0,0-7.6,4.2c5.6-6.1,10.9-17.5,10.9-23.7,0,6.2,5.2,17.6,10.9,23.7a14.7,14.7,0,0,0-7.7-4.2,64,64,0,0,0,13.2,19,23,23,0,0,0-10.5-5.4c4.3,8.1,10.5,16.4,17,22a31.8,31.8,0,0,0-13.8-6.7c6,10,14.3,20.2,23,27.2a45.1,45.1,0,0,0-17.5-8.3,105.4,105.4,0,0,0,18.7,16.9l-1.5-1,1.4,1a222.2,222.2,0,0,1-32.8,2.7C106.5,153.8,88.1,152.8,87.7,149.2Z" style="fill:url(#linear-gradient-6)"/><path id="fenxő-7" data-name="fenxő" d="M115.3,165.3c-.2-2.5,4.6-3.4,13-12.1,4-4.2,7.8-8.5,11.3-13a65.1,65.1,0,0,0-24.8,13.5c13.1-11.7,25.7-28.7,34.7-45.4a47.4,47.4,0,0,0-20.9,11.3c9.8-9.4,19.2-23.3,25.7-36.8a33.1,33.1,0,0,0-15.8,9c7.8-8.1,15.2-20.4,19.9-31.7a20.7,20.7,0,0,0-11.6,7.1c8.5-10.3,16.4-29.3,16.4-39.5,0,10.2,8,29.2,16.5,39.5a20.7,20.7,0,0,0-11.6-7.1c4.7,11.3,12.1,23.6,19.9,31.7a33.1,33.1,0,0,0-15.8-9c6.5,13.5,15.9,27.4,25.7,36.8A47.4,47.4,0,0,0,177,108.3c9,16.7,21.6,33.7,34.7,45.4a65.7,65.7,0,0,0-26.4-13.9,170.8,170.8,0,0,0,28.1,28.3l-2.1-1.6,2,1.6a305.8,305.8,0,0,1-49.4,4.5C143.6,172.8,115.9,171.2,115.3,165.3Z" style="fill:url(#linear-gradient-7)"/></g></svg>