<svg xmlns="http://www.w3.org/2000/svg" xmlns:xlink="http://www.w3.org/1999/xlink" width="46" height="65" viewBox="0 0 46 65"><defs><linearGradient id="linear-gradient" x1="21.06" y1="56.28" x2="21.06" y2="34.82" gradientUnits="userSpaceOnUse"><stop offset="0" stop-color="#f7ff15"/><stop offset="0.52" stop-color="#fff"/><stop offset="1" stop-color="#f7ff15"/><stop offset="1" stop-color="#aa8e00"/></linearGradient></defs><title>rhyt</title><g id="jingle"><g id="dísz"><polygon points="24.6 36.4 17.6 36.4 18.6 30.9 23.3 30.9 24.6 36.4" style="fill:#eda506"/><circle cx="21.1" cy="45.6" r="10.7" style="stroke:#eda506;stroke-miterlimit:10;fill:url(#linear-gradient)"/><rect x="20.4" y="4.7" width="1.4" height="27.94" style="fill:#fff"/><path d="M10.4,46.9a11.2,11.2,0,0,0,7.2-2.4,10.6,10.6,0,0,0,3.5-5.6,11.6,11.6,0,0,0,3.8,5.5,11.3,11.3,0,0,0,6.8,2.5" style="fill:none;stroke:#eda506;stroke-miterlimit:10"/><path d="M10.4,44.4a11.6,11.6,0,0,1,7.2,2.3,11,11,0,0,1,3.5,5.6,11.5,11.5,0,0,1,3.8-5.4,11.3,11.3,0,0,1,6.8-2.5" style="fill:none;stroke:#eda506;stroke-miterlimit:10"/><circle cx="21.4" cy="45.3" r="1.4" style="fill:#eda506"/><circle cx="16.2" cy="41.4" r="1.4" style="fill:#eda506"/><circle cx="16.2" cy="49.3" r="1.4" style="fill:#eda506"/><circle cx="26.8" cy="41.4" r="1.4" style="fill:#eda506"/><circle cx="26.8" cy="49.3" r="1.4" style="fill:#eda506"/></g></g></svg>