<svg id="Layer_1" data-name="Layer 1" xmlns="http://www.w3.org/2000/svg" width="75.6mm" height="81.6mm" viewBox="0 0 214.4 231.4"><title>foikonok</title><g id="rénszarvas"><path d="M145.1,134.6c-9.1,6.2-13.7,15.2-10.3,20s13.4,3.7,22.4-2.5,10.2-20,10.2-20S154.1,128.4,145.1,134.6Z" style="fill:#c67c29"/><path d="M175.2,42.6c-4.9-10.3-11.5-5.9-9.4,2.8s2.3,26-3.7,28-5.9-2.8-6.7-5.5,1.9-12.1-1.5-13.8-6.5,1.2-6.9,4.3-4.4,5.2-7.2,4.2-7.5,2-5.1,5.6,10.5,3.4,12.7,5.6,2.6,6.8,1.1,10.9-9.9,13.9-15.3,8.8a12.9,12.9,0,0,1-3.6-7.9c-.4-3.1,2-7.2-1.7-9.8s-7,2-6.7,6.3-.7,5.4-4.5,5.4-6.7.3-8.1,3.8,5.2,4.8,9.5,5.3,6.3,1.7,7.7,5.2,1,8.3-.5,14.4-7.1-1.2-8.9-3.9-9.5,1.5-3.8,8.5c4.3,5.2,8.5,15.2,9.3,20.4a43.2,43.2,0,0,1,6.8,2.6c.4-2.5,2.6-8.7,4.5-13.6a26.4,26.4,0,0,1,7.9-11.3c8.3-7.1,24.3-21.3,31.3-31.5C182,73.2,180,53,175.2,42.6Z" style="fill:#a71e22"/><path d="M39.2,42.6c4.9-10.3,11.5-5.9,9.4,2.8s-2.3,26,3.6,28,6-2.8,6.8-5.5-1.9-12.1,1.5-13.8,6.5,1.2,6.9,4.3,4.4,5.2,7.2,4.2,7.5,2,5.1,5.6S69.2,71.6,67,73.8s-2.6,6.8-1.1,10.9,9.9,13.9,15.3,8.8c2.2-2.1,3.1-4.9,3.6-7.9s-2-7.2,1.7-9.8,7,2,6.7,6.3.7,5.4,4.5,5.4,6.7.3,8.1,3.8-5.2,4.8-9.5,5.3-6.3,1.7-7.7,5.2-1,8.3.5,14.4,7-1.2,8.9-3.9,9.4,1.5,3.8,8.5c-4.3,5.2-8.5,15.2-9.3,20.4a43.2,43.2,0,0,0-6.8,2.6c-.4-2.5-2.6-8.7-4.5-13.6a26.4,26.4,0,0,0-7.9-11.3C65,111.8,49,97.6,42,87.4,32.4,73.2,34.4,53,39.2,42.6Z" style="fill:#a71e22"/><path d="M144.2,139.9c-6.4,4.3-9.6,10.6-7.2,14s9.3,2.6,15.6-1.8,7.2-14,7.2-14S150.5,135.5,144.2,139.9Z" style="fill:#713c18"/><path d="M70.4,134.6c9.1,6.2,13.7,15.2,10.3,20s-13.4,3.7-22.4-2.5-10.3-20-10.3-20S61.4,128.4,70.4,134.6Z" style="fill:#c67c29"/><path d="M71.3,139.9c6.3,4.3,9.6,10.6,7.2,14s-9.3,2.6-15.7-1.8-7.1-14-7.1-14S65,135.5,71.3,139.9Z" style="fill:#713c18"/><path d="M108.1,133.9h0c-.1,0-.2-.3-.2-.3l-.3-.3h0a33.5,33.5,0,0,0-14.9,3.9,39.5,39.5,0,0,0-5.7,3.7l-2.4,2.2a40.5,40.5,0,0,0-4.1,5,3.5,3.5,0,0,1-.5.8,27.9,27.9,0,0,0-1.8,3.4,31.6,31.6,0,0,0-2,5.4,40.2,40.2,0,0,0-1.5,9.4c-.5,7.7.9,16.4,3.9,25.9a2.5,2.5,0,0,0,2.3,1.8l.8-.2a2.8,2.8,0,0,0,1.4-3.5c-5.2-16.2-4.9-29.8.9-39s16-12.8,23.6-12.8h.5c7.6,0,17.8,3.4,23.7,12.7s6,22.8.8,39.1a2.8,2.8,0,0,0,1.5,3.4,1.1,1.1,0,0,0,.8.2,2.3,2.3,0,0,0,2.2-1.8c3.1-9.5,4.4-18.2,4-25.9a40.1,40.1,0,0,0-1.6-9.4,31.6,31.6,0,0,0-2-5.4,21.1,21.1,0,0,0-1.8-3.3l-.5-.9a39.4,39.4,0,0,0-4.1-4.9,34.7,34.7,0,0,0-2.9-2.5,37.3,37.3,0,0,0-5.7-3.4A34.7,34.7,0,0,0,108.1,133.9Z" style="fill:#637934"/></g></svg>