<svg id="Layer_1" data-name="Layer 1" xmlns="http://www.w3.org/2000/svg" width="75.6mm" height="81.6mm" viewBox="0 0 214.4 231.4"><title>foikonok</title><g id="diótörő"><polygon points="87.9 72.7 126.4 72.7 123.7 116 123.7 120.6 126.4 136.8 87.9 136.8 90.4 120.5 90.4 116 87.9 72.7" style="fill:#991b1e"/><polygon points="106.8 136.8 123.4 136.8 117.1 209.8 106.8 209.8 106.8 136.8"/><polygon points="121.3 136.8 122.2 136.8 115.8 209.8 114.5 209.8 121.3 136.8" style="fill:#fdef38"/><polygon points="107.1 136.8 90.4 136.8 96.8 209.8 107.1 209.8 107.1 136.8"/><polygon points="92.6 136.8 91.7 136.8 98.1 209.8 99.4 209.8 92.6 136.8" style="fill:#fdef38"/><rect x="94.9" y="204.6" width="23.7" height="5.17" style="fill:#010101"/><rect x="128.9" y="135.1" width="7.3" height="7.24" rx="3.6" ry="3.6" style="fill:#fcbf8b"/><path d="M123.7,72.7h6.6a6.1,6.1,0,0,1,6.1,6.1v58h-7.9Z" style="fill:#991b1e"/><rect x="123.5" y="71.9" width="13.2" height="1.63" style="fill:#fdef38"/><rect x="129.7" y="131.4" width="7.4" height="0.82" style="fill:#fdef38"/><rect x="129.7" y="132.8" width="7.4" height="0.82" style="fill:#fdef38"/><rect x="78.2" y="135.1" width="7.3" height="7.24" rx="3.6" ry="3.6" transform="translate(163.7 277.5) rotate(-180)" style="fill:#fcbf8b"/><path d="M90.7,72.7H84a6.1,6.1,0,0,0-6,6.1v58h7.9Z" style="fill:#991b1e"/><rect x="77.7" y="71.9" width="13.2" height="1.63" transform="translate(168.6 145.5) rotate(-180)" style="fill:#fdef38"/><rect x="77.3" y="131.4" width="7.4" height="0.82" transform="translate(162 263.7) rotate(-180)" style="fill:#fdef38"/><rect x="77.3" y="132.8" width="7.4" height="0.82" transform="translate(162 266.4) rotate(-180)" style="fill:#fdef38"/><rect x="90.4" y="116" width="33.4" height="4.58" transform="translate(214.1 236.5) rotate(-180)" style="fill:#fdef38"/><circle cx="100.5" cy="92.1" r="1.8" style="fill:#fdef38"/><circle cx="112.5" cy="92.1" r="1.8" style="fill:#fdef38"/><circle cx="100.5" cy="100.5" r="1.8" style="fill:#fdef38"/><circle cx="112.5" cy="100.3" r="1.8" style="fill:#fdef38"/><circle cx="100.5" cy="108.8" r="1.8" style="fill:#fdef38"/><circle cx="112.5" cy="108.8" r="1.8" style="fill:#fdef38"/><polygon points="118.8 72.1 112.1 78.8 101 78.8 94.4 72.1 94.4 51.3 118.8 51.3 118.8 72.1" style="fill:#fcbf8b"/><rect x="101" y="67.6" width="11.1" height="17.93" style="fill:#fcbf8b"/><rect x="102" y="69.5" width="9.2" height="15.28" rx="4.6" ry="4.6" style="fill:#57280d"/><path d="M91.9,68.3a13.4,13.4,0,0,0,8.6,1.8,11.8,11.8,0,0,0,5.5-2.4l-1.2-3a14.8,14.8,0,0,1-7.6,3.6A15.5,15.5,0,0,1,91.9,68.3Z" style="fill:#464646"/><path d="M121.6,68.3a13.2,13.2,0,0,1-8.5,1.8,11.8,11.8,0,0,1-5.6-2.4l1.2-3a14.8,14.8,0,0,0,7.6,3.6A15.5,15.5,0,0,0,121.6,68.3Z" style="fill:#464646"/><circle cx="101.6" cy="58.5" r="2.3" style="fill:#fff"/><circle cx="101.6" cy="58.5" r="0.8" style="fill:#3879bd"/><rect x="96.8" y="55.3" width="9.2" height="2.03" style="fill:#474747"/><circle cx="112" cy="58.5" r="2.3" style="fill:#fff"/><circle cx="112" cy="58.5" r="0.8" style="fill:#3879bd"/><rect x="107.5" y="55.3" width="9.2" height="2.03" transform="translate(224.3 112.6) rotate(-180)" style="fill:#474747"/><rect x="94.4" y="21.6" width="24.4" height="28.99"/><path d="M94.4,50.6h24.4a0,0,0,0,1,0,0v0a3.5,3.5,0,0,1-3.5,3.5H97.9a3.5,3.5,0,0,1-3.5-3.5v0A0,0,0,0,1,94.4,50.6Z" style="fill:#010101;stroke:#464646;stroke-miterlimit:10"/><circle cx="106.6" cy="28.1" r="1.8" style="fill:#fdef38"/><circle cx="106.6" cy="36.4" r="1.8" style="fill:#fdef38"/><circle cx="106.6" cy="44.8" r="1.8" style="fill:#fdef38"/></g></svg>