<svg xmlns="http://www.w3.org/2000/svg" width="36" height="61" viewBox="0 0 36 61"><title>rhyt</title><g id="jingle"><g id="tá"><path d="M18.5,21.2a27,27,0,0,1-4.8-7,27.6,27.6,0,0,1-2.4-8,4.1,4.1,0,0,1,3.2-.8c1.2.1,1.5.7,2.9.8s1.5-.5,2.9-.4S22.1,7,23.5,7s1.4-.8,2.4-.7a3.1,3.1,0,0,1,2,1.2,18.7,18.7,0,0,1-3.2,7.6A20.3,20.3,0,0,1,18.5,21.2Z" style="fill:#fff;stroke:#ddd;"/><path d="M16.7,39.5a30.5,30.5,0,0,0-6,6A29.2,29.2,0,0,0,6.9,53,3.6,3.6,0,0,1,9,52.9c1.3.5,1.4,1.6,2.5,1.7s1.4-.9,2.7-.8,1.6,1.8,3,1.9,1.8-1.2,3.3-1.3a4.3,4.3,0,0,1,3,1.2,22.3,22.3,0,0,0-1.8-8.9A21.5,21.5,0,0,0,16.7,39.5Z" style="fill:#fff;stroke:#ddd;"/><rect x="10.4" y="18.6" width="13.9" height="24.5" rx="7" ry="7" transform="translate(3 -1.5) rotate(5.4)" style="fill:#a80404;stroke:#e8da2e;stroke-miterlimit:10"/><polygon points="24.6 29.9 9.9 34.2 10.2 30.6 24.9 26.3 24.6 29.9" style="fill:#e8da2e"/><line x1="9.8" y1="35.2" x2="24.5" y2="30.9" style="fill:none;stroke:#e8da2e;stroke-miterlimit:10"/><line x1="10.5" y1="29.8" x2="24.8" y2="25.5" style="fill:none;stroke:#e8da2e;stroke-miterlimit:10"/></g></g></svg>