<svg id="Layer_1" data-name="Layer 1" xmlns="http://www.w3.org/2000/svg" width="233" height="229" viewBox="0 0 233 229"><title>decoration</title><polygon points="121.1 28.2 107.2 41.7 89.9 31.7 105.5 47.7 105.6 47.6 114.3 117.6 118.7 117 110.1 47.2 121.1 28.2" style="fill:#fff"/><polygon points="112.5 28.2 104.1 18.7 98.3 29.9 106.7 39.5 112.5 28.2" style="fill:#fff"/><polygon points="111.8 205.8 125.7 192.2 143 202.3 127.4 186.2 127.3 186.4 118.6 116.4 114.2 116.9 122.9 186.8 111.8 205.8" style="fill:#fff"/><polygon points="120.4 205.8 128.8 215.3 134.6 204 126.2 194.5 120.4 205.8" style="fill:#fff"/><polygon points="41.9 68.5 46.7 87.4 29.3 97.3 51 91.8 50.9 91.7 115.9 119.2 117.6 115.1 52.8 87.6 41.9 68.5" style="fill:#fff"/><polygon points="37.6 76 25.1 78.5 32 89.2 44.4 86.7 37.6 76" style="fill:#fff"/><polygon points="191.1 165.4 186.3 146.6 203.6 136.6 181.9 142.1 182 142.3 117 114.8 115.3 118.9 180.1 146.3 191.1 165.4" style="fill:#fff"/><polygon points="195.4 157.9 207.8 155.4 200.9 144.8 188.5 147.3 195.4 157.9" style="fill:#fff"/><polygon points="37.2 157.4 55.9 162.6 55.9 182.6 61.9 161.1 61.8 161.1 118.1 118.6 115.4 115 59.2 157.4 37.2 157.4" style="fill:#fff"/><polygon points="41.5 164.8 37.5 176.8 50.2 176.2 54.2 164.2 41.5 164.8" style="fill:#fff"/><polygon points="195.7 76.6 177 71.3 177 51.4 171 72.9 171.1 72.9 114.9 115.4 117.5 119 173.7 76.6 195.7 76.6" style="fill:#fff"/><polygon points="191.4 69.1 195.4 57.1 182.8 57.7 178.7 69.8 191.4 69.1" style="fill:#fff"/><path d="M172.2,110.2l-23.4,20.6,1.6,31.1-29.5-10L94.8,168.8l-6.1-30.6L61,124l23.4-20.5L82.8,72.4l29.5,10,26.2-16.9,6,30.5ZM150,113l-16.6-8.5-3.7-18.3L114,96.3l-17.7-6,1,18.7L83.2,121.3l16.7,8.5,3.6,18.3L119.2,138l17.7,6-.9-18.7Z" style="fill:#fff"/></svg>