<svg id="Layer_1" data-name="Layer 1" xmlns="http://www.w3.org/2000/svg" width="89mm" height="101.6mm" viewBox="0 0 252.4 288.1"><title>house</title><path d="M218.4,126.8H197.6V69.6h19.6l-32.5-47H47.7l-32.5,47H34.9v204H211.7V163.5h20.9ZM79.2,234H59V205.8H79.2Zm0-31H59V174.9H79.2Zm0-65.2H59V109.6H79.2Zm0-31H59V78.7H79.2Zm23,127.2H82V205.8h20.2Zm0-31H82V174.9h20.2Zm0-65.2H82V109.6h20.2Zm0-31H82V78.7h20.2ZM150.4,234H130.2V205.8h20.2Zm0-31H130.2V174.9h20.2Zm0-65.2H130.2V109.6h20.2Zm0-31H130.2V78.7h20.2Zm23,127.2H153.2V205.8h20.2Zm0-31H153.2V174.9h20.2Zm0-65.2H153.2V109.6h20.2Zm0-31H153.2V78.7h20.2Z" style="fill:#fff"/></svg>