<svg id="háttér" xmlns="http://www.w3.org/2000/svg" xmlns:xlink="http://www.w3.org/1999/xlink" width="4260" height="2220" viewBox="0 0 4260 2220"><defs><style>.cls-1{fill:url(#linear-gradient);}.cls-2{fill:url(#linear-gradient-2);}.cls-3{fill:url(#linear-gradient-3);}.cls-4{fill:url(#linear-gradient-4);}.cls-5{fill:url(#linear-gradient-5);}.cls-6{fill:#fff;}.cls-7{fill:url(#linear-gradient-6);}</style><linearGradient id="linear-gradient" x1="2120.81" y1="1356.02" x2="2120.81" y2="1278.86" gradientUnits="userSpaceOnUse"><stop offset="0" stop-color="#fff"/><stop offset="0.3" stop-color="#fdfefe"/><stop offset="0.43" stop-color="#f5fafb"/><stop offset="0.54" stop-color="#e9f2f6"/><stop offset="0.63" stop-color="#d6e8ee"/><stop offset="0.7" stop-color="#bedbe4"/><stop offset="0.77" stop-color="#a1cbd8"/><stop offset="0.84" stop-color="#7eb7c9"/><stop offset="0.9" stop-color="#56a1b8"/><stop offset="0.96" stop-color="#2988a5"/><stop offset="1" stop-color="#007194"/></linearGradient><linearGradient id="linear-gradient-2" x1="2112.4" y1="1304" x2="2112.4" y2="940.73" gradientUnits="userSpaceOnUse"><stop offset="0" stop-color="#fff"/><stop offset="0.09" stop-color="#f7fafb"/><stop offset="0.22" stop-color="#e0eef2"/><stop offset="0.39" stop-color="#bad9e2"/><stop offset="0.58" stop-color="#86bccc"/><stop offset="0.8" stop-color="#4597b1"/><stop offset="1" stop-color="#007194"/></linearGradient><linearGradient id="linear-gradient-3" x1="2045.43" y1="1216.63" x2="2045.43" y2="889.73" gradientTransform="matrix(-1.07, 0.05, 0.05, 1, 4254.64, -105.59)" xlink:href="#linear-gradient-2"/><linearGradient id="linear-gradient-4" x1="2099.24" y1="1148.94" x2="2099.24" y2="806.8" xlink:href="#linear-gradient-2"/><linearGradient id="linear-gradient-5" x1="2108.55" y1="1049.46" x2="2108.55" y2="795.98" xlink:href="#linear-gradient-2"/><linearGradient id="linear-gradient-6" x1="2130" y1="2221" x2="2130" y2="1070.17" xlink:href="#linear-gradient-2"/></defs><title>landscape</title><g id="_1._kulissza_-_fa" data-name="1. kulissza - fa"><polygon class="cls-1" points="2096.2 1278.9 2084.2 1356 2157.4 1356 2146.1 1278.9 2096.2 1278.9"/><path class="cls-2" d="M2364.2,1274c-134.3-24.4-268.4-333.3-268.4-333.3s-94.4,313.9-235.2,336.6c151.6-24.4,158.6,11.5,260.2,24.3C2218.5,1313.9,2286.3,1274.8,2364.2,1274Z"/><path class="cls-3" d="M2097.7,889.3c5.2,108.8,126.7,368.8,302.6,292.1-137,59.7-376.9.5-570.4,47.3C2099.1,1163.5,2102.9,998.1,2097.7,889.3Z"/><path class="cls-4" d="M2108.6,806.8c.3,83.7,51.6,293.5,175.7,322.2-109.9-25.4-254.1,54.2-370.1,1.5C2034.3,1185,2108.9,890.5,2108.6,806.8Z"/><path class="cls-5" d="M2108.5,796c0,64.4,35.1,210.9,132.2,248.5-76.9-29.8-112.5,20.2-264.3,0C2069.6,1056.9,2108.5,860.4,2108.5,796Z"/><path class="cls-6" d="M2108.6,768.3c0,49.5-28.1,210.8-88.1,196.4,52.8,12.7,91.9.8,183.9-9.9C2136.7,962.7,2108.6,817.8,2108.6,768.3Z"/><path class="cls-7" d="M983.3,1168c355,49.9,805.1,202,1208,176,124.2-8,236-26.6,236-26.6,220.6-39.9,353.5-113,860-197.4,600.3-100,972.7-18.5,972.7-18.5L4259,2221,0,2220V1211C386.8,1120.8,782.9,1139.8,983.3,1168Z"/></g></svg>