<svg xmlns="http://www.w3.org/2000/svg" xmlns:xlink="http://www.w3.org/1999/xlink" width="75.4mm" height="75.8mm" viewBox="0 0 213.9 214.8"><defs><linearGradient id="linear-gradient" x1="57.13" y1="94.09" x2="57.13" y2="122.71" gradientUnits="userSpaceOnUse"><stop offset="0" stop-color="#96d8eb"/><stop offset="0.38" stop-color="#fbfeff"/><stop offset="1" stop-color="#fff"/></linearGradient><linearGradient id="linear-gradient-2" x1="79.82" y1="94.55" x2="79.82" y2="122.25" xlink:href="#linear-gradient"/><linearGradient id="linear-gradient-3" x1="102.84" y1="94.09" x2="102.84" y2="122.25" xlink:href="#linear-gradient"/><linearGradient id="linear-gradient-4" x1="131.23" y1="94.55" x2="131.23" y2="122.25" xlink:href="#linear-gradient"/><linearGradient id="linear-gradient-5" x1="155.1" y1="94.55" x2="155.1" y2="122.25" xlink:href="#linear-gradient"/><linearGradient id="linear-gradient-6" x1="106.84" y1="30.76" x2="106.84" y2="186.04" xlink:href="#linear-gradient"/></defs><title>UI</title><g id="Layer_2" data-name="Layer 2"><g id="info"><path d="M56.5,122.7a18.5,18.5,0,0,1-7.8-1.6v-3a17.3,17.3,0,0,0,7.7,2,8.3,8.3,0,0,0,4.6-1.2,3.8,3.8,0,0,0,1.8-3.3,4.6,4.6,0,0,0-1.4-3.4,13.3,13.3,0,0,0-5-2.6,15,15,0,0,1-6-3.4,6.9,6.9,0,0,1-1.8-4.9A6.3,6.3,0,0,1,51.1,96a10.1,10.1,0,0,1,6.4-1.9,16.7,16.7,0,0,1,6.7,1.4v2.9a14.1,14.1,0,0,0-6.6-1.7A6.8,6.8,0,0,0,53.2,98a3.7,3.7,0,0,0-1.7,3.2,4.2,4.2,0,0,0,1.4,3.3,14.1,14.1,0,0,0,4.9,2.7,15,15,0,0,1,6,3.4,6.5,6.5,0,0,1,1.8,4.8,6.4,6.4,0,0,1-2.5,5.4A10.2,10.2,0,0,1,56.5,122.7Z" style="fill:url(#linear-gradient)"/><path d="M89.8,97H81.3v25.2h-3V97H69.8V94.5h20Z" style="fill:url(#linear-gradient-2)"/><path d="M90.2,122.2l12.6-28.1h.1l12.6,28.1h-3.1l-3-6.6H96.2l-2.9,6.6Zm7.1-9.1h11l-5.5-12.9C101.5,103.5,99.7,107.8,97.3,113.1Z" style="fill:url(#linear-gradient-3)"/><path d="M121.9,94.5h8.8a10.6,10.6,0,0,1,6.9,2.2,7.6,7.6,0,0,1,2.5,6.1,7.5,7.5,0,0,1-1.7,5.1,8.7,8.7,0,0,1-4.4,2.7l6.5,11.6h-3.2L131.2,111h-6.4v11.2h-2.9Zm8.7,2.5h-5.8v11.6h6a7,7,0,0,0,4.7-1.6,5.4,5.4,0,0,0,1.7-4.2,5.2,5.2,0,0,0-1.8-4.2A6.8,6.8,0,0,0,130.6,97Z" style="fill:url(#linear-gradient-4)"/><path d="M165.1,97h-8.6v25.2h-2.9V97h-8.5V94.5h20Z" style="fill:url(#linear-gradient-5)"/><path d="M106.8,30.8a77.6,77.6,0,1,0,77.7,77.6A77.6,77.6,0,0,0,106.8,30.8Zm0,141.4a63.8,63.8,0,1,1,63.8-63.8A63.8,63.8,0,0,1,106.8,172.2Z" style="fill:url(#linear-gradient-6)"/></g></g></svg>